<svg xmlns="http://www.w3.org/2000/svg" width="125" height="36" viewBox="0 0 125 36" fill="none"><g clip-path="url(#clip0_130_180)"><mask id="mask0_130_180" style="mask-type:luminance" maskUnits="userSpaceOnUse" x="0" y="0" width="125" height="36"><path d="M0.204346 0.253906H124.796V35.8522H0.204346V0.253906Z" fill="white"></path></mask><g mask="url(#mask0_130_180)"><path d="M47.9418 9.35905C47.9166 9.41152 47.8806 9.45805 47.8361 9.49554C47.7916 9.53304 47.7396 9.56065 47.6837 9.57654L45.3253 10.2757C45.0366 10.3591 44.887 10.2757 44.7691 9.98703C44.6335 9.41477 44.2951 8.91106 43.8166 8.56925C43.338 8.22744 42.7518 8.07072 42.1665 8.12813C39.9466 8.12813 39.1868 9.44304 39.1868 11.2135V15.2867C39.1868 17.0572 39.936 18.3721 42.1665 18.3721C44.002 18.3721 44.9409 17.5177 44.9409 15.6583V15.1021H42.5436C42.4977 15.1059 42.4514 15.0994 42.4084 15.0828C42.3653 15.0663 42.3266 15.0402 42.295 15.0065C42.2635 14.9728 42.24 14.9325 42.2263 14.8884C42.2126 14.8444 42.2091 14.7978 42.216 14.7522V12.5451C42.2102 12.4997 42.2145 12.4535 42.2285 12.41C42.2426 12.3664 42.2661 12.3265 42.2974 12.293C42.3287 12.2596 42.367 12.2335 42.4096 12.2166C42.4521 12.1997 42.4979 12.1924 42.5436 12.1952H47.8834C47.929 12.1884 47.9755 12.1919 48.0196 12.2056C48.0636 12.2193 48.104 12.2428 48.1377 12.2743C48.1713 12.3058 48.1974 12.3446 48.214 12.3876C48.2305 12.4307 48.2371 12.4769 48.2332 12.5229V15.8891C48.2332 19.1074 45.8693 21.5326 42.1954 21.5326C37.8391 21.5326 35.8027 18.9522 35.8027 15.4286V11.1245C35.8027 7.57858 37.8391 5.02051 42.1954 5.02051C45.7191 5.02051 47.3127 7.02959 47.9501 9.04367M59.9367 13.0485V20.9469C59.9391 20.9905 59.9323 21.0342 59.9167 21.075C59.9011 21.1159 59.877 21.153 59.8461 21.1839C59.8152 21.2148 59.7781 21.2388 59.7373 21.2545C59.6964 21.2701 59.6528 21.2769 59.6091 21.2745H57.2007C57.1554 21.2793 57.1097 21.2743 57.0666 21.2599C57.0234 21.2455 56.9839 21.2219 56.9507 21.1908C56.9175 21.1597 56.8914 21.1218 56.8741 21.0797C56.8569 21.0376 56.8489 20.9923 56.8508 20.9469V19.6536C56.5087 20.2293 56.0207 20.7044 55.436 21.0308C54.8513 21.3572 54.1908 21.5234 53.5212 21.5125C51.2463 21.5125 49.7756 20.0474 49.7756 17.7947C49.7756 15.542 51.1573 14.2905 54.5258 14.0547C55.2536 13.9992 55.9845 13.9992 56.7123 14.0547V13.1558C56.7123 11.9739 56.1004 11.4911 55.0475 11.4911C54.6818 11.4393 54.3098 11.5241 54.0027 11.7294C53.6956 11.9346 53.4749 12.2458 53.3827 12.6035C53.2715 12.8644 53.1886 12.9089 52.9444 12.8421L50.536 12.2303C50.2974 12.1635 50.2751 12.0306 50.3196 11.8587C50.6472 10.1272 52.2898 8.85511 55.1754 8.85511C58.2163 8.85511 59.9256 10.3013 59.9256 13.0168M56.7073 17.1512V16.0471C56.0646 16.0239 55.4211 16.0462 54.7816 16.1138C53.5607 16.2635 52.9005 16.6356 52.9005 17.5789C52.9005 18.4277 53.4567 18.8883 54.4101 18.8883C54.9276 18.8989 55.4341 18.7374 55.8499 18.429C56.2657 18.1207 56.5673 17.6829 56.7073 17.1846M68.6272 8.88849C69.3011 8.87633 69.9602 9.08708 70.502 9.488C71.0438 9.88892 71.4381 10.4576 71.6235 11.1056C72.5224 9.79068 73.6159 8.88571 75.1472 8.88571C77.267 8.88571 78.4768 10.5505 78.4768 13.0863V20.9469C78.4733 20.9946 78.4603 21.0411 78.4384 21.0836C78.4166 21.1262 78.3863 21.1639 78.3496 21.1945C78.3128 21.2251 78.2702 21.2479 78.2244 21.2617C78.1786 21.2754 78.1305 21.2798 78.083 21.2745H75.5694C75.5218 21.2798 75.4737 21.2755 75.4278 21.2618C75.382 21.2481 75.3394 21.2253 75.3026 21.1947C75.2658 21.164 75.2356 21.1263 75.2138 21.0837C75.1919 21.0412 75.179 20.9946 75.1756 20.9469V13.6603C75.1756 12.5479 74.6928 11.9066 73.8406 11.9066C72.9885 11.9066 72.2871 12.6558 71.9595 13.7933V20.9463C71.9626 20.9882 71.9569 21.0303 71.943 21.07C71.929 21.1097 71.907 21.146 71.8783 21.1768C71.8497 21.2075 71.8149 21.232 71.7764 21.2487C71.7378 21.2655 71.6962 21.274 71.6541 21.2739H68.9314C68.7373 21.2739 68.6483 21.141 68.6483 20.9463V13.6598C68.6483 12.5473 68.1655 11.906 67.3134 11.906C66.4612 11.906 65.7376 12.6942 65.4322 13.815V20.9457C65.4365 20.9898 65.431 21.0343 65.4161 21.0761C65.4012 21.1178 65.3772 21.1557 65.3458 21.187C65.3145 21.2183 65.2766 21.2423 65.2349 21.2572C65.1932 21.2722 65.1487 21.2777 65.1046 21.2734H62.4347C62.3906 21.2777 62.3461 21.2722 62.3044 21.2572C62.2627 21.2423 62.2248 21.2183 62.1935 21.187C62.1622 21.1557 62.1382 21.1178 62.1232 21.0761C62.1083 21.0343 62.1028 20.9898 62.1071 20.9457V9.45973C62.107 9.41768 62.1156 9.37607 62.1323 9.33749C62.149 9.29891 62.1735 9.26421 62.2043 9.23554C62.235 9.20687 62.2714 9.18486 62.311 9.1709C62.3507 9.15693 62.3928 9.1513 62.4347 9.15436H64.9934C65.0355 9.15043 65.0779 9.15545 65.118 9.1691C65.158 9.18275 65.1947 9.20471 65.2257 9.23356C65.2566 9.2624 65.2811 9.29746 65.2975 9.33644C65.3139 9.37542 65.3219 9.41744 65.321 9.45973V10.8358C65.6735 10.2629 66.1616 9.78561 66.7423 9.44608C67.323 9.10655 67.9784 8.91524 68.6505 8.88904M92.2405 9.15547C92.3073 9.43859 92.2405 9.65608 91.9574 9.7117L89.6379 10.3886C89.5857 10.4138 89.5283 10.4261 89.4703 10.4247C89.4124 10.4233 89.3556 10.4082 89.3047 10.3805C89.2537 10.3529 89.2101 10.3135 89.1773 10.2657C89.1445 10.2179 89.1236 10.163 89.1162 10.1055C88.7825 8.99306 88.2174 8.13536 86.5971 8.13536C84.6047 8.13536 83.9723 9.45027 83.9723 11.2207V15.294C83.9723 17.0644 84.6953 18.3793 86.5971 18.3793C88.3064 18.3793 88.961 17.4137 89.2219 16.2101C89.2277 16.1512 89.2479 16.0947 89.2807 16.0455C89.3136 15.9963 89.358 15.9559 89.4101 15.9279C89.4622 15.9 89.5204 15.8852 89.5795 15.8851C89.6387 15.8849 89.6969 15.8993 89.7492 15.9269L92.0742 16.6817C92.1304 16.698 92.1827 16.7256 92.2279 16.7628C92.273 16.8001 92.3099 16.8462 92.3365 16.8984C92.363 16.9506 92.3786 17.0076 92.3822 17.066C92.3858 17.1244 92.3773 17.183 92.3573 17.238C91.8011 19.6019 90.1041 21.5209 86.5581 21.5209C82.5795 21.5209 80.5648 18.9406 80.5648 15.4169V11.1245C80.5648 7.57858 82.6179 5.02051 86.5581 5.02051C90.0151 5.02051 91.6359 6.85605 92.2461 9.17661M103.885 13.0524V20.9508C103.887 20.9944 103.88 21.0381 103.864 21.0789C103.849 21.1198 103.825 21.1569 103.794 21.1878C103.763 21.2187 103.726 21.2427 103.685 21.2583C103.644 21.274 103.601 21.2808 103.557 21.2784H101.148C101.103 21.2832 101.057 21.2782 101.014 21.2638C100.971 21.2493 100.932 21.2258 100.898 21.1947C100.865 21.1636 100.839 21.1257 100.822 21.0836C100.805 21.0415 100.797 20.9962 100.799 20.9508V19.6536C100.457 20.2293 99.9684 20.7044 99.3838 21.0308C98.7991 21.3572 98.1386 21.5234 97.469 21.5125C95.1941 21.5125 93.729 20.0474 93.729 17.7947C93.729 15.542 95.1051 14.2905 98.4736 14.0547C99.2032 13.9991 99.936 13.9991 100.666 14.0547V13.1558C100.666 11.9739 100.05 11.4911 99.0009 11.4911C98.6355 11.4423 98.265 11.5283 97.9585 11.7331C97.6521 11.9379 97.4308 12.2473 97.3361 12.6035C97.2304 12.8644 97.142 12.9089 96.8978 12.8421L94.4949 12.2303C94.2507 12.1635 94.2285 12.0306 94.2724 11.8587C94.6 10.1272 96.2425 8.85511 99.1332 8.85511C102.174 8.85511 103.878 10.3013 103.878 13.0168M100.665 17.1512V16.0471C100.022 16.0237 99.3789 16.046 98.7394 16.1138C97.5157 16.2635 96.8583 16.6356 96.8583 17.5789C96.8583 18.4277 97.4145 18.8883 98.3679 18.8883C98.8852 18.898 99.3912 18.7361 99.8068 18.4279C100.222 18.1196 100.524 17.6824 100.665 17.1846M113.256 9.37129V11.713C113.256 11.9961 113.145 12.1068 112.863 12.1068H112.508C110.759 12.1068 109.733 12.895 109.383 14.2099V20.9469C109.386 20.9874 109.381 21.0282 109.368 21.0667C109.355 21.1053 109.335 21.1409 109.308 21.1714C109.281 21.2019 109.248 21.2268 109.212 21.2445C109.175 21.2622 109.135 21.2724 109.095 21.2745H106.32C106.28 21.2724 106.24 21.2622 106.203 21.2445C106.167 21.2268 106.134 21.2019 106.107 21.1714C106.08 21.1409 106.06 21.1053 106.047 21.0667C106.034 21.0282 106.029 20.9874 106.032 20.9469V9.45973C106.03 9.41719 106.037 9.37474 106.053 9.33533C106.069 9.29591 106.094 9.26046 106.125 9.23143C106.156 9.2024 106.193 9.18047 106.234 9.16716C106.274 9.15386 106.317 9.14949 106.359 9.15436H108.856C109.117 9.15436 109.184 9.32623 109.184 9.50423V11.1245C109.504 10.4628 110.01 9.9082 110.639 9.52801C111.269 9.14782 111.995 8.95832 112.73 8.98249C113.168 8.98249 113.286 9.04923 113.286 9.35405M117.553 16.1956V16.6561C117.553 17.9271 118.213 18.8204 119.773 18.8204C121.333 18.8204 121.699 18.2642 122.092 17.5328C122.287 17.2051 122.376 17.1612 122.725 17.3103L124.449 18.1869C124.805 18.3643 124.826 18.5367 124.672 18.8638C123.928 20.5286 122.069 21.5109 119.75 21.5109C116.245 21.5109 114.41 19.4356 114.41 16.5888V13.8161C114.41 11.0416 116.134 8.88849 119.726 8.88849C123.139 8.88849 124.804 11.0578 124.804 13.7499V15.6755C124.804 16.0031 124.693 16.2318 124.248 16.2318L117.553 16.1956ZM117.553 13.637V14.0536H121.776V13.6375C121.802 13.3552 121.766 13.0706 121.67 12.8038C121.574 12.5371 121.421 12.2947 121.221 12.094C121.02 11.8932 120.778 11.739 120.512 11.6423C120.245 11.5456 119.961 11.5088 119.678 11.5344C119.395 11.5084 119.109 11.5448 118.841 11.641C118.573 11.7372 118.329 11.8908 118.126 12.0912C117.924 12.2916 117.767 12.5338 117.669 12.8009C117.57 13.068 117.53 13.353 117.553 13.637Z" fill="white"></path><path d="M15.337 0.253929H0.653774C0.594965 0.25334 0.536623 0.264416 0.482121 0.286515C0.427619 0.308614 0.378039 0.341297 0.336246 0.382676C0.294454 0.424055 0.261278 0.473308 0.238638 0.527587C0.215998 0.581867 0.204343 0.640096 0.204346 0.698907V22.0523C0.206115 25.7114 1.66093 29.2201 4.24893 31.8068C6.83693 34.3936 10.3463 35.8467 14.0054 35.8467H15.337C18.9955 35.8467 22.5041 34.3933 25.091 31.8064C27.678 29.2195 29.1313 25.7108 29.1313 22.0523V14.0494C29.1313 12.2379 28.7745 10.4441 28.0813 8.77052C27.388 7.09691 26.372 5.57623 25.091 4.29531C23.8101 3.01439 22.2894 1.9983 20.6158 1.30507C18.9422 0.611842 17.1485 0.255041 15.337 0.255041M24.6988 22.2843C24.6988 27.4783 20.8864 31.4019 14.9487 31.4019C7.91805 31.4019 4.63244 27.2302 4.63244 21.5356V14.5822C4.63244 8.85315 7.9175 4.68814 14.9376 4.68814C20.6255 4.68814 23.2059 7.93983 24.2326 11.1921C24.2722 11.2784 24.2927 11.3722 24.2927 11.4671C24.2928 11.5621 24.2723 11.6559 24.2328 11.7423C24.1932 11.8286 24.1355 11.9054 24.0636 11.9673C23.9917 12.0293 23.9072 12.0751 23.816 12.1015L19.9981 13.2139C19.5431 13.3524 19.2934 13.2139 19.1549 12.7534C18.5503 10.8111 17.2793 9.74978 14.9487 9.74978C11.3416 9.74978 10.1429 11.8695 10.1429 14.7441V21.3298C10.1429 24.1932 11.3416 26.3241 14.9487 26.3241C17.9173 26.3241 19.4714 24.9425 19.4714 21.94V21.0801H15.4927C15.4172 21.0904 15.3404 21.0831 15.2682 21.0588C15.196 21.0345 15.1305 20.9938 15.0766 20.9399C15.0228 20.8861 14.9821 20.8205 14.9578 20.7483C14.9335 20.6761 14.9262 20.5993 14.9365 20.5238V16.8795C14.9304 16.8049 14.9407 16.7299 14.9665 16.6596C14.9923 16.5894 15.0331 16.5256 15.086 16.4727C15.1389 16.4198 15.2027 16.379 15.2729 16.3532C15.3431 16.3274 15.4181 16.3172 15.4927 16.3232H24.1325C24.2053 16.3138 24.2793 16.3206 24.3491 16.3434C24.4189 16.3661 24.4828 16.4041 24.5361 16.4546C24.5893 16.5051 24.6307 16.5668 24.6571 16.6353C24.6835 16.7038 24.6943 16.7773 24.6888 16.8505L24.6988 22.2843Z" fill="#734BC3"></path><path d="M39.0597 25.9963C39.066 26.0073 39.0697 26.0196 39.0705 26.0323C39.0713 26.045 39.0693 26.0577 39.0644 26.0694C39.0596 26.0812 39.0522 26.0917 39.0427 26.1001C39.0332 26.1085 39.0219 26.1147 39.0096 26.1181L38.6203 26.2399C38.5591 26.2399 38.5257 26.2399 38.4984 26.1899C38.4425 25.9742 38.3121 25.7852 38.1303 25.6562C37.9486 25.5273 37.7271 25.4667 37.505 25.4851C37.3541 25.4645 37.2004 25.4791 37.0561 25.5277C36.9117 25.5763 36.7806 25.6577 36.6728 25.7654C36.5651 25.8731 36.4838 26.0043 36.4352 26.1486C36.3865 26.293 36.372 26.4466 36.3926 26.5976V28.0682C36.372 28.2192 36.3865 28.3728 36.4352 28.5172C36.4838 28.6615 36.5651 28.7927 36.6728 28.9004C36.7806 29.0081 36.9117 29.0895 37.0561 29.1381C37.2004 29.1867 37.3541 29.2013 37.505 29.1807C38.1319 29.1807 38.5429 28.892 38.5429 28.2429V27.6867H37.6335C37.5835 27.6867 37.5556 27.6867 37.5556 27.6032V27.2951C37.5556 27.2395 37.5556 27.2116 37.6335 27.2116H39.043C39.0546 27.2099 39.0664 27.2109 39.0776 27.2144C39.0888 27.2179 39.0991 27.2238 39.1076 27.2319C39.1162 27.2399 39.1228 27.2497 39.127 27.2607C39.1313 27.2716 39.133 27.2834 39.132 27.2951V28.3163C39.1339 28.5237 39.092 28.7291 39.0089 28.9191C38.9259 29.1092 38.8035 29.2795 38.65 29.4189C38.4965 29.5583 38.3152 29.6637 38.118 29.728C37.9209 29.7924 37.7124 29.8144 37.5061 29.7925C37.2793 29.8192 37.0494 29.7947 36.8332 29.721C36.617 29.6473 36.4201 29.5262 36.2567 29.3666C36.0934 29.2069 35.9678 29.0128 35.8892 28.7983C35.8106 28.5839 35.781 28.3546 35.8024 28.1272V26.5698C35.7811 26.3424 35.8108 26.1132 35.8894 25.8988C35.9681 25.6844 36.0936 25.4903 36.257 25.3308C36.4203 25.1712 36.6172 25.0501 36.8334 24.9764C37.0495 24.9028 37.2794 24.8784 37.5061 24.905C37.8495 24.8776 38.1918 24.9698 38.4749 25.166C38.758 25.3622 38.9646 25.6502 39.0597 25.9813M42.0561 28.6339V28.0777C41.7936 28.0611 41.5303 28.0611 41.2679 28.0777C40.7795 28.1333 40.4853 28.3052 40.4853 28.7101C40.479 28.7951 40.4923 28.8803 40.5241 28.9593C40.556 29.0383 40.6056 29.1089 40.669 29.1657C40.7325 29.2226 40.8082 29.264 40.8902 29.287C40.9722 29.3099 41.0584 29.3137 41.1422 29.298C41.3444 29.2959 41.541 29.231 41.7048 29.1123C41.8686 28.9937 41.9915 28.8271 42.0566 28.6356M42.6128 27.215V29.6401C42.6128 29.6902 42.6128 29.7124 42.5294 29.7124H42.14C42.0844 29.7124 42.0566 29.7124 42.0566 29.6401V29.1796C41.9499 29.36 41.7981 29.5097 41.6162 29.6138C41.4342 29.7179 41.2283 29.773 41.0187 29.7736C40.8753 29.7883 40.7305 29.7721 40.5939 29.7262C40.4573 29.6803 40.3321 29.6056 40.2267 29.5073C40.1214 29.409 40.0382 29.2893 39.983 29.1562C39.9277 29.0231 39.9015 28.8797 39.9062 28.7357C39.9062 28.0866 40.3446 27.7312 41.1995 27.665C41.4784 27.6457 41.7583 27.6457 42.0371 27.665V27.2561C42.0371 26.79 41.7651 26.5959 41.3268 26.5959C41.1709 26.57 41.0108 26.6035 40.8783 26.6898C40.7458 26.7761 40.6504 26.9089 40.611 27.062C40.611 27.1232 40.5665 27.1288 40.4997 27.1176L40.1226 27.012C40.0614 27.012 40.0448 26.9675 40.0614 26.9174C40.1777 26.429 40.6177 26.1125 41.3408 26.1125C42.0638 26.1125 42.6062 26.468 42.6062 27.225M45.1587 26.1042C45.3511 26.1002 45.5394 26.1609 45.6933 26.2765C45.8472 26.3922 45.9578 26.5562 46.0075 26.7422C46.1103 26.5561 46.2593 26.3997 46.4401 26.288C46.6209 26.1762 46.8274 26.1129 47.0398 26.1042C47.1753 26.1053 47.309 26.1351 47.4321 26.1917C47.5552 26.2482 47.665 26.3301 47.7541 26.4321C47.8433 26.5341 47.9099 26.6538 47.9494 26.7834C47.989 26.9129 48.0007 27.0494 47.9837 27.1838V29.6312C47.9837 29.6868 47.9504 29.7091 47.8947 29.7091H47.5121C47.4509 29.7091 47.4231 29.7091 47.4231 29.6312V27.2951C47.4231 26.8623 47.2289 26.6276 46.8668 26.6276C46.686 26.6483 46.5156 26.7231 46.378 26.8422C46.2404 26.9613 46.1419 27.1191 46.0954 27.2951V29.6423C46.0954 29.698 46.0953 29.7202 46.0175 29.7202H45.592C45.5308 29.7202 45.5141 29.7202 45.5141 29.6423V27.2951C45.5141 26.8623 45.3255 26.6276 44.9579 26.6276C44.7789 26.6535 44.6111 26.7301 44.4744 26.8484C44.3377 26.9667 44.2377 27.1217 44.1864 27.2951V29.6145C44.1864 29.6701 44.1864 29.6924 44.1085 29.6924H43.6869C43.6257 29.6924 43.609 29.6924 43.609 29.6145V26.2405C43.609 26.196 43.609 26.1682 43.6869 26.1682H44.0974C44.1586 26.1682 44.1753 26.196 44.1753 26.2405V26.7066C44.2754 26.5306 44.4186 26.3828 44.5913 26.2771C44.7641 26.1713 44.9608 26.1111 45.1631 26.102M49.569 27.5393V28.3608C49.5609 28.4792 49.5781 28.598 49.6194 28.7093C49.6608 28.8206 49.7253 28.9218 49.8087 29.0063C49.8921 29.0908 49.9925 29.1565 50.1033 29.1993C50.214 29.242 50.3326 29.2607 50.4511 29.2541C50.9618 29.2541 51.2671 28.9543 51.2671 28.3608V27.5337C51.2671 26.9452 50.9618 26.6293 50.4511 26.6293C50.3329 26.6266 50.2155 26.6487 50.1063 26.6941C49.9972 26.7395 49.8987 26.8072 49.8172 26.8929C49.7357 26.9786 49.673 27.0803 49.6332 27.1916C49.5933 27.3029 49.5771 27.4213 49.5857 27.5393M49.5857 24.8866V26.6571C49.6944 26.4799 49.8484 26.335 50.0318 26.2372C50.2152 26.1394 50.4214 26.0923 50.6291 26.1009C50.8013 26.0981 50.972 26.1322 51.13 26.2008C51.2879 26.2693 51.4294 26.3708 51.545 26.4985C51.6606 26.6261 51.7476 26.7769 51.8002 26.9409C51.8528 27.1048 51.8698 27.2781 51.85 27.4491V28.4314C51.8692 28.604 51.851 28.7786 51.7967 28.9435C51.7424 29.1083 51.6533 29.2596 51.5354 29.387C51.4175 29.5143 51.2735 29.6148 51.1133 29.6817C50.9531 29.7485 50.7804 29.78 50.6069 29.7742C50.401 29.7807 50.1971 29.7327 50.0158 29.635C49.8346 29.5373 49.6823 29.3934 49.5745 29.2179V29.6284C49.5745 29.6785 49.5356 29.6952 49.4967 29.6952H49.0862C49.0361 29.6952 49.0083 29.6952 49.0083 29.6284V24.8866C49.0074 24.8769 49.0087 24.8671 49.0121 24.858C49.0154 24.8488 49.0207 24.8405 49.0276 24.8336C49.0345 24.8267 49.0428 24.8214 49.052 24.8181C49.0611 24.8148 49.0709 24.8135 49.0806 24.8143H49.5189C49.569 24.8143 49.5857 24.8143 49.5857 24.8866ZM53.3368 24.8866V29.6312C53.3368 29.6868 53.3368 29.7091 53.259 29.7091H52.8373C52.7706 29.7091 52.7539 29.7091 52.7539 29.6312V24.8866C52.7539 24.8366 52.7539 24.8088 52.8373 24.8088H53.259C53.2696 24.8068 53.2806 24.8074 53.291 24.8106C53.3013 24.8138 53.3107 24.8195 53.3184 24.8272C53.3261 24.8348 53.3318 24.8443 53.335 24.8546C53.3382 24.865 53.3388 24.876 53.3368 24.8866ZM54.892 26.2438V29.6368C54.892 29.6868 54.892 29.7091 54.8197 29.7091H54.3981C54.3314 29.7091 54.3147 29.7091 54.3147 29.6368V26.2438C54.3147 26.1937 54.3147 26.1715 54.3981 26.1715H54.8197C54.8753 26.1715 54.892 26.1715 54.892 26.2438ZM54.892 24.9089V25.5302C54.892 25.5914 54.892 25.6247 54.7975 25.6247H54.4081C54.3953 25.6266 54.3822 25.6254 54.3698 25.6213C54.3575 25.6173 54.3463 25.6103 54.3371 25.6012C54.3279 25.592 54.321 25.5808 54.3169 25.5685C54.3128 25.5561 54.3117 25.543 54.3136 25.5302V24.9089C54.3117 24.896 54.3128 24.8829 54.3169 24.8706C54.321 24.8583 54.3279 24.8471 54.3371 24.8379C54.3463 24.8287 54.3575 24.8218 54.3698 24.8177C54.3822 24.8136 54.3953 24.8124 54.4081 24.8143H54.7975C54.8698 24.8143 54.892 24.8477 54.892 24.9089ZM56.4734 27.3229V29.6368C56.4734 29.6868 56.4734 29.7091 56.4011 29.7091H56.0017C55.9349 29.7091 55.9183 29.7091 55.9183 29.6368V26.2405C55.9183 26.196 55.9183 26.1682 55.9961 26.1682H56.4066C56.4678 26.1682 56.4845 26.196 56.4845 26.2405V26.7066C56.6063 26.5224 56.7714 26.371 56.9653 26.2656C57.1593 26.1602 57.3762 26.104 57.5969 26.102C57.7457 26.098 57.8936 26.1266 58.0302 26.1857C58.1668 26.2449 58.2888 26.3332 58.3877 26.4445C58.4866 26.5558 58.5599 26.6873 58.6026 26.8299C58.6453 26.9725 58.6563 27.1227 58.6349 27.27V29.6368C58.6349 29.6868 58.6349 29.7091 58.5514 29.7091H58.1298C58.0742 29.7091 58.0464 29.7091 58.0464 29.6368V27.3618C58.0464 26.9068 57.8411 26.6387 57.3973 26.6387C57.1975 26.6512 57.0059 26.7227 56.8469 26.8442C56.6879 26.9657 56.5685 27.1318 56.504 27.3212M59.9998 27.3768C59.9908 27.4821 60.0053 27.5881 60.0424 27.6871C60.0795 27.786 60.1382 27.8754 60.2143 27.9488C60.2903 28.0222 60.3818 28.0777 60.482 28.1112C60.5822 28.1448 60.6887 28.1556 60.7936 28.1428C60.8956 28.1561 60.9994 28.1461 61.0969 28.1133C61.1945 28.0805 61.2833 28.026 61.3566 27.9537C61.4299 27.8815 61.4858 27.7935 61.52 27.6964C61.5542 27.5994 61.5658 27.4958 61.5539 27.3935C61.5615 27.2869 61.547 27.1798 61.5114 27.0791C61.4758 26.9783 61.4198 26.8859 61.3469 26.8077C61.274 26.7295 61.1859 26.6671 61.0878 26.6244C60.9898 26.5818 60.8841 26.5598 60.7772 26.5598C60.6703 26.5598 60.5645 26.5818 60.4665 26.6244C60.3685 26.6671 60.2803 26.7295 60.2074 26.8077C60.1345 26.8859 60.0785 26.9783 60.0429 27.0791C60.0073 27.1798 59.9928 27.2869 60.0004 27.3935M61.8593 30.0573C61.8593 29.802 61.7152 29.5634 61.1918 29.5634H60.5427C60.0543 29.5634 59.9047 29.8131 59.9047 30.0684C59.9047 30.4233 60.1828 30.6569 60.8648 30.6569C61.5467 30.6569 61.8582 30.4127 61.8582 30.0578M62.4144 30.0189C62.4144 30.5751 61.9817 31.0791 60.8331 31.0791C59.7729 31.0791 59.3568 30.6797 59.3568 30.1246C59.3592 29.9551 59.414 29.7906 59.5136 29.6535C59.6131 29.5163 59.7527 29.4134 59.9131 29.3587C59.8401 29.3076 59.7797 29.2406 59.7365 29.1627C59.6932 29.0848 59.6682 28.9982 59.6633 28.9092C59.6673 28.7995 59.7036 28.6935 59.7678 28.6044C59.8319 28.5153 59.921 28.4472 60.0238 28.4086C59.8476 28.3072 59.7026 28.1594 59.6045 27.9813C59.5065 27.8032 59.4591 27.6016 59.4675 27.3985C59.4591 27.2275 59.4884 27.0567 59.5533 26.8983C59.6182 26.7398 59.7172 26.5976 59.8431 26.4816C59.9691 26.3657 60.1191 26.2788 60.2824 26.2273C60.4456 26.1757 60.6183 26.1606 60.788 26.1832H62.3343C62.3788 26.1832 62.401 26.211 62.401 26.2611V26.5775C62.401 26.6387 62.3677 26.661 62.3232 26.661H61.7074C61.827 26.7595 61.9218 26.8846 61.9844 27.0262C62.047 27.1679 62.0756 27.3223 62.0679 27.477C62.0679 28.1316 61.6296 28.5894 60.7886 28.5894H60.4988C60.2546 28.5894 60.1489 28.7006 60.1489 28.8336C60.1489 28.9665 60.2601 29.0778 60.4988 29.0778H61.2591C62.0935 29.0778 62.4188 29.4938 62.4188 30.01M67.713 25.9034C67.7186 25.9142 67.7214 25.9263 67.7212 25.9384C67.7209 25.9506 67.7175 25.9625 67.7114 25.9731C67.7053 25.9836 67.6967 25.9924 67.6863 25.9987C67.6758 26.005 67.664 26.0086 67.6518 26.0091L67.2914 26.1476C67.2801 26.152 67.268 26.154 67.2559 26.1535C67.2438 26.1531 67.2319 26.1501 67.221 26.1449C67.21 26.1397 67.2003 26.1323 67.1923 26.1232C67.1843 26.1141 67.1783 26.1035 67.1746 26.092C67.1131 25.9011 66.9896 25.7363 66.8237 25.6237C66.6578 25.5112 66.4591 25.4573 66.259 25.4707C65.7028 25.4707 65.388 25.7315 65.388 26.1587C65.388 26.5859 65.621 26.7149 66.5004 27.0687C67.3798 27.4224 67.7547 27.8012 67.7547 28.4592C67.7498 28.6491 67.7054 28.8359 67.6242 29.0077C67.543 29.1794 67.4269 29.3323 67.2832 29.4566C67.1396 29.5809 66.9716 29.6739 66.7899 29.7295C66.6083 29.7851 66.417 29.8022 66.2284 29.7797C65.8837 29.8149 65.5378 29.7257 65.2529 29.5284C64.9681 29.3311 64.7631 29.0385 64.6749 28.7034C64.6749 28.6367 64.6749 28.6089 64.7305 28.5872L65.1076 28.4654C65.1799 28.4654 65.2078 28.4654 65.2244 28.5321C65.2783 28.7508 65.41 28.9425 65.5949 29.0711C65.7797 29.1998 66.0052 29.2567 66.229 29.2313C66.7852 29.2313 67.1445 28.9532 67.1445 28.5043C67.1445 28.0554 66.9337 27.8925 66.1289 27.5832C65.1633 27.2005 64.7973 26.8228 64.7973 26.1682C64.8043 25.9869 64.8488 25.8091 64.9282 25.646C65.0075 25.4829 65.1199 25.338 65.2582 25.2206C65.3964 25.1032 65.5576 25.0158 65.7314 24.964C65.9052 24.9121 66.0879 24.897 66.2679 24.9194C66.5858 24.8974 66.902 24.982 67.1664 25.16C67.4307 25.3379 67.6282 25.5989 67.7274 25.9017M68.6096 28.6155V26.2438C68.6096 26.1937 68.6374 26.1659 68.6931 26.1659H69.1147C69.1703 26.1659 69.1981 26.1937 69.1981 26.2438V28.5132C69.1981 28.9738 69.4033 29.2402 69.8417 29.2402C70.0424 29.2285 70.235 29.1566 70.3944 29.0339C70.5537 28.9111 70.6724 28.7433 70.7349 28.5521V26.2438C70.7349 26.1937 70.7349 26.1659 70.8184 26.1659H71.2344C71.3012 26.1659 71.3179 26.1937 71.3179 26.2438V29.6312C71.3179 29.6813 71.3179 29.7091 71.24 29.7091H70.8295C70.8188 29.7111 70.8079 29.7104 70.7975 29.7072C70.7871 29.704 70.7777 29.6983 70.7701 29.6907C70.7624 29.683 70.7567 29.6736 70.7535 29.6632C70.7503 29.6529 70.7496 29.6419 70.7516 29.6312V29.1707C70.6316 29.357 70.467 29.5105 70.2728 29.6173C70.0786 29.7241 69.8608 29.7809 69.6392 29.7825C69.4907 29.7855 69.3432 29.7563 69.2071 29.6968C69.071 29.6373 68.9494 29.549 68.8507 29.438C68.752 29.3269 68.6786 29.1958 68.6356 29.0536C68.5925 28.9114 68.5808 28.7616 68.6013 28.6144M74.5712 28.3575V27.5114C74.5893 27.3968 74.5813 27.2796 74.5479 27.1685C74.5144 27.0574 74.4563 26.9552 74.3778 26.8697C74.2994 26.7842 74.2027 26.7174 74.0949 26.6745C73.9871 26.6315 73.871 26.6134 73.7552 26.6215C73.6385 26.6181 73.5224 26.6392 73.4143 26.6833C73.3063 26.7275 73.2086 26.7938 73.1276 26.8779C73.0467 26.962 72.9842 27.0621 72.9442 27.1718C72.9042 27.2815 72.8875 27.3983 72.8953 27.5148V28.3491C72.8867 28.4668 72.9029 28.585 72.9428 28.696C72.9827 28.807 73.0455 28.9084 73.1271 28.9937C73.2086 29.0789 73.3072 29.1461 73.4164 29.1908C73.5255 29.2356 73.6429 29.257 73.7608 29.2535C74.2714 29.2535 74.5768 28.9426 74.5768 28.3547M72.3903 31.0017C72.3806 31.0026 72.3708 31.0013 72.3616 30.998C72.3525 30.9946 72.3441 30.9893 72.3373 30.9825C72.3304 30.9756 72.3251 30.9672 72.3217 30.9581C72.3184 30.9489 72.3171 30.9391 72.318 30.9294V26.2405C72.318 26.1904 72.3458 26.1682 72.3958 26.1682H72.8063C72.8165 26.1664 72.8269 26.167 72.8367 26.1699C72.8466 26.1728 72.8556 26.178 72.8632 26.185C72.8707 26.192 72.8765 26.2007 72.8802 26.2103C72.8838 26.2199 72.8852 26.2302 72.8842 26.2405V26.6398C72.9938 26.4661 73.1465 26.3236 73.3273 26.2261C73.5082 26.1287 73.7111 26.0796 73.9165 26.0836C74.0893 26.0779 74.2613 26.1093 74.4209 26.1756C74.5805 26.242 74.724 26.3418 74.8418 26.4683C74.9596 26.5948 75.0489 26.745 75.1038 26.909C75.1586 27.0729 75.1777 27.2466 75.1597 27.4186V28.4131C75.1785 28.584 75.1609 28.7569 75.1079 28.9204C75.055 29.084 74.9679 29.2344 74.8525 29.3619C74.7371 29.4893 74.596 29.5908 74.4385 29.6597C74.281 29.7285 74.1107 29.7632 73.9388 29.7614C73.7316 29.7716 73.5255 29.7252 73.3427 29.6272C73.1599 29.5292 73.0071 29.3833 72.9009 29.2051V30.9033C72.9017 30.913 72.9004 30.9228 72.8971 30.9319C72.8938 30.9411 72.8885 30.9494 72.8816 30.9563C72.8747 30.9632 72.8664 30.9685 72.8572 30.9718C72.8481 30.9752 72.8383 30.9765 72.8286 30.9756L72.3903 31.0017ZM78.3318 28.3575V27.5114C78.35 27.3968 78.342 27.2796 78.3085 27.1685C78.275 27.0574 78.2169 26.9552 78.1385 26.8697C78.06 26.7842 77.9633 26.7174 77.8555 26.6745C77.7477 26.6315 77.6316 26.6134 77.5159 26.6215C77.3992 26.6181 77.283 26.6392 77.175 26.6833C77.0669 26.7275 76.9692 26.7938 76.8883 26.8779C76.8073 26.962 76.7448 27.0621 76.7048 27.1718C76.6648 27.2815 76.6481 27.3983 76.6559 27.5148V28.3491C76.6474 28.4663 76.6634 28.584 76.703 28.6946C76.7426 28.8053 76.8049 28.9064 76.8858 28.9915C76.9668 29.0767 77.0647 29.144 77.1732 29.1891C77.2817 29.2342 77.3984 29.2562 77.5159 29.2535C78.0265 29.2535 78.3318 28.9426 78.3318 28.3547M76.1453 31.0017C76.1356 31.0026 76.1259 31.0013 76.1167 30.998C76.1075 30.9946 76.0992 30.9893 76.0923 30.9825C76.0854 30.9756 76.0801 30.9672 76.0768 30.9581C76.0735 30.9489 76.0722 30.9391 76.073 30.9294V26.2405C76.073 26.1904 76.1008 26.1682 76.1509 26.1682H76.5614C76.5715 26.1664 76.5819 26.167 76.5918 26.1699C76.6017 26.1728 76.6107 26.178 76.6183 26.185C76.6258 26.192 76.6316 26.2007 76.6353 26.2103C76.6389 26.2199 76.6403 26.2302 76.6393 26.2405V26.6398C76.7489 26.4661 76.9015 26.3236 77.0824 26.2261C77.2632 26.1287 77.4662 26.0796 77.6716 26.0836C77.8448 26.0771 78.0174 26.1079 78.1777 26.1739C78.338 26.2399 78.4822 26.3395 78.6006 26.4661C78.719 26.5927 78.8089 26.7432 78.864 26.9076C78.9192 27.0719 78.9384 27.2462 78.9203 27.4186V28.4131C78.9392 28.5842 78.9215 28.7574 78.8683 28.9211C78.8152 29.0848 78.7279 29.2354 78.6122 29.3629C78.4966 29.4904 78.3551 29.5918 78.1973 29.6605C78.0394 29.7292 77.8688 29.7636 77.6966 29.7614C77.4896 29.7704 77.284 29.7235 77.1014 29.6256C76.9188 29.5277 76.7659 29.3825 76.6587 29.2051V30.9033C76.6596 30.913 76.6583 30.9228 76.655 30.9319C76.6516 30.9411 76.6463 30.9494 76.6394 30.9563C76.6325 30.9632 76.6242 30.9685 76.6151 30.9718C76.6059 30.9752 76.5961 30.9765 76.5864 30.9756L76.1453 31.0017ZM80.3292 27.5059V28.4047C80.3292 28.6299 80.4187 28.8459 80.5779 29.0051C80.7372 29.1644 80.9531 29.2538 81.1783 29.2538C81.4035 29.2538 81.6195 29.1644 81.7787 29.0051C81.9379 28.8459 82.0274 28.6299 82.0274 28.4047V27.5059C82.0274 27.2807 81.9379 27.0647 81.7787 26.9055C81.6195 26.7463 81.4035 26.6568 81.1783 26.6568C80.9531 26.6568 80.7372 26.7463 80.5779 26.9055C80.4187 27.0647 80.3292 27.2807 80.3292 27.5059ZM82.6098 27.4781V28.4047C82.6098 28.7845 82.4589 29.1486 82.1904 29.4171C81.9219 29.6856 81.5578 29.8365 81.178 29.8365C80.7983 29.8365 80.4342 29.6856 80.1657 29.4171C79.8972 29.1486 79.7463 28.7845 79.7463 28.4047V27.4948C79.7463 27.115 79.8972 26.7509 80.1657 26.4824C80.4342 26.2139 80.7983 26.063 81.178 26.063C81.5578 26.063 81.9219 26.2139 82.1904 26.4824C82.4589 26.7509 82.6098 27.115 82.6098 27.4948M85.268 26.1854V26.5775C85.268 26.6387 85.268 26.661 85.179 26.661H85.1067C84.8847 26.6534 84.6663 26.718 84.4842 26.8451C84.3021 26.9721 84.1661 27.1548 84.0965 27.3657V29.6201C84.0965 29.6701 84.0632 29.6868 84.0242 29.6868H83.5859C83.577 29.6877 83.5679 29.6866 83.5594 29.6835C83.5509 29.6805 83.5432 29.6756 83.5368 29.6692C83.5305 29.6628 83.5256 29.6551 83.5225 29.6466C83.5195 29.6381 83.5183 29.6291 83.5192 29.6201V26.2405C83.5192 26.1849 83.5192 26.1682 83.5971 26.1682H83.9964C84.052 26.1682 84.0799 26.196 84.0799 26.246V26.8023C84.1816 26.5964 84.3409 26.4245 84.5383 26.3074C84.7357 26.1902 84.9629 26.1328 85.1923 26.142C85.2757 26.142 85.298 26.142 85.298 26.2255M86.9628 25.3355V26.1843H87.7176C87.7732 26.1843 87.7954 26.2121 87.7954 26.2733V26.5898C87.7954 26.651 87.7954 26.6732 87.7176 26.6732H86.9628V28.7207C86.9628 29.0372 87.1346 29.1812 87.4567 29.1812H87.712C87.7676 29.1812 87.7954 29.1812 87.7954 29.2591V29.6195C87.7954 29.6807 87.7954 29.703 87.712 29.703H87.3733C87.2472 29.7213 87.1186 29.7114 86.9968 29.6739C86.875 29.6365 86.763 29.5724 86.669 29.4864C86.575 29.4004 86.5013 29.2945 86.4532 29.1765C86.4051 29.0585 86.3839 28.9313 86.391 28.8041V26.6788H85.9082C85.8637 26.6788 85.8359 26.6788 85.8359 26.5953V26.2789C85.8359 26.2177 85.8637 26.1899 85.9082 26.1899H86.3965V25.3361C86.3965 25.2916 86.3965 25.2637 86.48 25.2637H86.8793C86.9461 25.2637 86.9628 25.2632 86.9628 25.3355ZM93.3221 25.9407C93.3221 26.0074 93.3221 26.0575 93.2275 26.0847L92.6062 26.3122C92.5908 26.3203 92.5737 26.3249 92.5563 26.3255C92.5388 26.3262 92.5215 26.3229 92.5055 26.316C92.4895 26.309 92.4752 26.2986 92.4638 26.2854C92.4523 26.2723 92.444 26.2567 92.4393 26.2399C92.3872 26.099 92.2896 25.9795 92.162 25.9001C92.0344 25.8207 91.8841 25.7861 91.7346 25.8016C91.3519 25.8016 91.1022 25.9846 91.1022 26.2622C91.1022 26.5397 91.2963 26.656 92.159 26.9558C93.0217 27.2556 93.3688 27.6661 93.3688 28.3463C93.3688 29.1623 92.6696 29.7836 91.6595 29.7836C91.2864 29.8288 90.9094 29.7382 90.5976 29.5283C90.2858 29.3184 90.0599 29.0033 89.9614 28.6406C89.9563 28.6264 89.9541 28.6113 89.955 28.5963C89.9559 28.5812 89.9599 28.5665 89.9666 28.553C89.9734 28.5396 89.9828 28.5276 89.9944 28.5179C90.0059 28.5082 90.0193 28.5009 90.0337 28.4965L90.705 28.274C90.794 28.2462 90.838 28.274 90.8602 28.363C90.8969 28.5393 90.9994 28.695 91.1469 28.7984C91.2944 28.9017 91.4757 28.945 91.654 28.9192C92.1089 28.9192 92.3476 28.7251 92.3476 28.4364C92.3476 28.1478 92.1757 28.0471 91.4765 27.804C90.472 27.4436 90.0893 27.0437 90.0893 26.3022C90.1039 26.1049 90.1579 25.9125 90.2481 25.7364C90.3382 25.5602 90.4627 25.404 90.6143 25.2767C90.7658 25.1495 90.9413 25.0539 91.1304 24.9956C91.3194 24.9373 91.5183 24.9175 91.7151 24.9372C92.0597 24.9029 92.4058 24.9856 92.6976 25.1718C92.9895 25.3581 93.2103 25.6371 93.3243 25.964M95.3223 25.3867V26.186H95.9897C96.004 26.1842 96.0186 26.1856 96.0322 26.1903C96.0459 26.195 96.0583 26.2027 96.0685 26.2129C96.0787 26.2231 96.0864 26.2355 96.0911 26.2492C96.0957 26.2628 96.0972 26.2773 96.0954 26.2916V26.8746C96.0963 26.8884 96.0942 26.9023 96.0891 26.9153C96.084 26.9282 96.0762 26.9399 96.0661 26.9495C96.056 26.959 96.0439 26.9662 96.0307 26.9706C96.0175 26.975 96.0035 26.9764 95.9897 26.9747H95.3223V28.556C95.3223 28.7613 95.4335 28.8781 95.6994 28.8781H95.9881C96.0548 28.8781 96.0937 28.9115 96.0937 28.9726V29.6312C96.0937 29.698 96.0548 29.7258 95.9881 29.7258H95.5409C94.7416 29.7258 94.3644 29.3042 94.3644 28.6823V26.958H93.9539C93.9401 26.9597 93.9261 26.9583 93.9129 26.9539C93.8997 26.9495 93.8877 26.9423 93.8776 26.9328C93.8675 26.9232 93.8596 26.9115 93.8546 26.8986C93.8495 26.8857 93.8473 26.8717 93.8483 26.8579V26.2738C93.8465 26.2595 93.8479 26.245 93.8526 26.2314C93.8573 26.2177 93.865 26.2053 93.8752 26.1951C93.8854 26.1849 93.8978 26.1772 93.9114 26.1725C93.9251 26.1678 93.9396 26.1664 93.9539 26.1682H94.3811V25.3861C94.3794 25.373 94.3807 25.3598 94.3848 25.3472C94.3888 25.3347 94.3956 25.3232 94.4047 25.3137C94.4137 25.3041 94.4248 25.2966 94.4371 25.2918C94.4494 25.2871 94.4625 25.2851 94.4757 25.286H95.2305C95.2917 25.286 95.3195 25.3249 95.3195 25.3861M98.6602 28.5049V28.1711C98.4749 28.1601 98.2892 28.1601 98.1039 28.1711C97.7435 28.2156 97.5477 28.3263 97.5477 28.6039C97.5477 28.8814 97.7146 28.9932 97.9927 28.9932C98.1454 28.9953 98.2945 28.9469 98.4169 28.8556C98.5393 28.7643 98.6281 28.6351 98.6696 28.4882M99.6185 27.2673V29.5978C99.6185 29.6107 99.6159 29.6235 99.6108 29.6354C99.6057 29.6472 99.5983 29.6579 99.5889 29.6667C99.5795 29.6756 99.5684 29.6824 99.5563 29.6869C99.5442 29.6913 99.5313 29.6932 99.5184 29.6924H98.8081C98.7952 29.6932 98.7823 29.6913 98.7702 29.6869C98.7581 29.6824 98.747 29.6756 98.7376 29.6667C98.7282 29.6579 98.7208 29.6472 98.7157 29.6354C98.7106 29.6235 98.708 29.6107 98.708 29.5978V29.2152C98.6088 29.3871 98.4654 29.5293 98.2926 29.6271C98.1199 29.7249 97.9242 29.7747 97.7257 29.7714C97.5765 29.7835 97.4265 29.763 97.2861 29.7114C97.1456 29.6598 97.0181 29.5782 96.9122 29.4724C96.8064 29.3666 96.7249 29.239 96.6733 29.0986C96.6216 28.9581 96.6011 28.8081 96.6132 28.6589C96.6132 28.0098 97.0237 27.6266 98.0172 27.5465C98.2312 27.5271 98.4466 27.5271 98.6607 27.5465V27.2951C98.6702 27.229 98.6641 27.1616 98.6428 27.0983C98.6215 27.035 98.5857 26.9776 98.5382 26.9306C98.4907 26.8837 98.4329 26.8485 98.3693 26.828C98.3058 26.8074 98.2383 26.802 98.1723 26.8123C98.0643 26.7977 97.9546 26.8228 97.8637 26.8831C97.7729 26.9434 97.707 27.0346 97.6784 27.1399C97.645 27.2178 97.6228 27.2344 97.551 27.2122L96.8407 27.0348C96.7684 27.0348 96.7629 26.9736 96.7796 26.9235C96.8741 26.4129 97.3358 26.0413 98.2057 26.0413C99.0757 26.0413 99.6096 26.463 99.6096 27.2623M102.506 26.186V26.8796C102.506 26.963 102.473 26.9908 102.39 26.9908H102.285C102.082 26.9652 101.877 27.014 101.707 27.1283C101.538 27.2426 101.416 27.4145 101.363 27.6121V29.5978C101.365 29.6097 101.364 29.6217 101.361 29.6332C101.357 29.6446 101.351 29.6552 101.343 29.6642C101.335 29.6731 101.326 29.6803 101.315 29.6852C101.304 29.69 101.292 29.6925 101.28 29.6924H100.47C100.458 29.6925 100.446 29.69 100.435 29.6852C100.424 29.6803 100.414 29.6731 100.406 29.6642C100.398 29.6552 100.392 29.6446 100.389 29.6332C100.385 29.6217 100.385 29.6097 100.386 29.5978V26.2127C100.385 26.2002 100.387 26.1878 100.392 26.1762C100.396 26.1646 100.403 26.1541 100.412 26.1456C100.421 26.137 100.432 26.1306 100.444 26.1268C100.456 26.1231 100.468 26.122 100.481 26.1237H101.219C101.232 26.1227 101.245 26.1247 101.257 26.1295C101.27 26.1343 101.281 26.1418 101.29 26.1513C101.299 26.1609 101.306 26.1724 101.31 26.1849C101.314 26.1974 101.315 26.2107 101.313 26.2238V26.74C101.407 26.5463 101.555 26.384 101.739 26.2727C101.924 26.1614 102.136 26.106 102.351 26.1131C102.479 26.1131 102.506 26.1131 102.506 26.2243M104.404 25.3867V26.186H105.072C105.086 26.185 105.1 26.1872 105.112 26.1923C105.125 26.1973 105.137 26.2052 105.147 26.2153C105.156 26.2254 105.163 26.2374 105.168 26.2506C105.172 26.2638 105.174 26.2778 105.172 26.2916V26.8746C105.174 26.8881 105.172 26.902 105.168 26.915C105.164 26.9279 105.156 26.9397 105.147 26.9494C105.137 26.9591 105.125 26.9664 105.112 26.9708C105.099 26.9752 105.085 26.9765 105.072 26.9747H104.404V28.556C104.404 28.7613 104.516 28.8781 104.776 28.8781H105.07C105.083 28.8764 105.096 28.8776 105.109 28.8817C105.121 28.8858 105.133 28.8926 105.143 28.9017C105.152 28.9107 105.16 28.9218 105.164 28.934C105.169 28.9463 105.171 28.9595 105.17 28.9726V29.6312C105.17 29.698 105.131 29.7258 105.07 29.7258H104.621C103.821 29.7258 103.45 29.3042 103.45 28.6823V26.958H103.034C103.02 26.9598 103.006 26.9585 102.993 26.9541C102.98 26.9497 102.969 26.9424 102.959 26.9327C102.949 26.923 102.942 26.9113 102.937 26.8983C102.933 26.8853 102.932 26.8715 102.934 26.8579V26.2738C102.932 26.26 102.933 26.246 102.938 26.2328C102.942 26.2196 102.949 26.2076 102.959 26.1975C102.968 26.1874 102.98 26.1795 102.993 26.1745C103.006 26.1694 103.02 26.1672 103.034 26.1682H103.461V25.3861C103.459 25.3725 103.46 25.3587 103.465 25.3457C103.469 25.3327 103.476 25.3209 103.486 25.3113C103.496 25.3016 103.508 25.2942 103.521 25.2899C103.534 25.2855 103.547 25.2842 103.561 25.286H104.316C104.329 25.2859 104.341 25.2885 104.353 25.2937C104.364 25.2988 104.375 25.3064 104.383 25.3159C104.391 25.3253 104.398 25.3365 104.402 25.3486C104.405 25.3607 104.406 25.3735 104.405 25.3861M108.622 26.9341C108.622 26.9897 108.622 27.0398 108.544 27.0615L107.951 27.2723C107.884 27.2723 107.851 27.2723 107.823 27.2C107.778 27.0773 107.694 26.9731 107.583 26.9038C107.472 26.8345 107.342 26.8041 107.212 26.8173C106.906 26.8173 106.729 26.9341 106.729 27.1115C106.729 27.289 106.856 27.3557 107.539 27.5387C108.333 27.7495 108.652 28.0949 108.652 28.6511C108.652 29.3392 108.095 29.7636 107.209 29.7636C106.322 29.7636 105.855 29.4471 105.671 28.9037C105.671 28.8258 105.671 28.7874 105.766 28.7485L106.288 28.4932C106.366 28.4542 106.409 28.4932 106.448 28.571C106.506 28.712 106.607 28.8306 106.738 28.9095C106.868 28.9884 107.02 29.0234 107.171 29.0094C107.532 29.0094 107.728 28.8925 107.728 28.6984C107.728 28.5043 107.528 28.4097 106.89 28.2323C106.107 28.0271 105.778 27.6761 105.778 27.1199C105.778 26.4429 106.334 26.0074 107.165 26.0074C107.467 25.9769 107.771 26.0453 108.031 26.2023C108.292 26.3594 108.494 26.5967 108.608 26.8785M114.602 25.0757V29.6034C114.602 29.659 114.602 29.698 114.501 29.698H113.713C113.7 29.6987 113.687 29.6968 113.675 29.6924C113.663 29.688 113.652 29.6812 113.643 29.6723C113.633 29.6635 113.626 29.6528 113.621 29.6409C113.616 29.6291 113.613 29.6163 113.613 29.6034V27.8163H111.987V29.6145C111.988 29.6277 111.986 29.6409 111.981 29.6531C111.977 29.6654 111.969 29.6765 111.96 29.6855C111.95 29.6946 111.939 29.7014 111.926 29.7054C111.913 29.7095 111.9 29.7108 111.887 29.7091H111.077C111.064 29.7098 111.051 29.708 111.039 29.7035C111.027 29.6991 111.016 29.6923 111.006 29.6834C110.997 29.6746 110.989 29.6639 110.984 29.652C110.979 29.6402 110.977 29.6274 110.977 29.6145V25.0757C110.977 25.0623 110.979 25.0491 110.985 25.0368C110.99 25.0245 110.998 25.0136 111.008 25.0046C111.018 24.9957 111.03 24.989 111.043 24.9849C111.055 24.9809 111.069 24.9796 111.082 24.9812H111.887C111.9 24.9795 111.913 24.9807 111.926 24.9848C111.939 24.9889 111.95 24.9957 111.96 25.0047C111.969 25.0138 111.977 25.0249 111.981 25.0371C111.986 25.0494 111.988 25.0626 111.987 25.0757V26.8735H113.613V25.0757C113.613 25.0628 113.616 25.0501 113.621 25.0382C113.626 25.0264 113.633 25.0157 113.643 25.0068C113.652 24.998 113.663 24.9911 113.675 24.9867C113.687 24.9823 113.7 24.9804 113.713 24.9812H114.518C114.59 24.9812 114.618 25.0201 114.618 25.0757M116.316 27.4675V27.5893H117.56V27.4675C117.566 27.3817 117.555 27.2955 117.527 27.2142C117.499 27.1329 117.454 27.0583 117.396 26.9951C117.338 26.9319 117.267 26.8815 117.188 26.847C117.109 26.8125 117.024 26.7947 116.938 26.7947C116.852 26.7947 116.767 26.8125 116.688 26.847C116.609 26.8815 116.538 26.9319 116.48 26.9951C116.422 27.0583 116.377 27.1329 116.349 27.2142C116.321 27.2955 116.31 27.3817 116.316 27.4675ZM116.316 28.2223V28.3575C116.302 28.4455 116.309 28.5358 116.336 28.6207C116.364 28.7055 116.412 28.7825 116.475 28.845C116.539 28.9076 116.617 28.9539 116.702 28.9801C116.787 29.0063 116.878 29.0116 116.965 28.9954C117.105 29.0169 117.248 28.9915 117.371 28.9233C117.495 28.855 117.592 28.7478 117.648 28.6183C117.709 28.5182 117.737 28.5071 117.837 28.5516L118.347 28.8124C118.453 28.8625 118.458 28.9126 118.414 29.0121C118.274 29.2696 118.062 29.4806 117.803 29.619C117.545 29.7573 117.252 29.8171 116.96 29.7908C116.757 29.8178 116.552 29.8 116.357 29.7388C116.162 29.6776 115.983 29.5744 115.832 29.4366C115.681 29.2987 115.562 29.1295 115.484 28.9409C115.406 28.7523 115.37 28.5487 115.379 28.3447V27.5114C115.369 27.3086 115.404 27.1061 115.481 26.9181C115.557 26.7302 115.675 26.5613 115.824 26.4235C115.973 26.2857 116.15 26.1822 116.344 26.1203C116.537 26.0584 116.742 26.0396 116.943 26.0653C117.139 26.0457 117.337 26.0688 117.523 26.1329C117.709 26.197 117.879 26.3006 118.022 26.4366C118.164 26.5726 118.275 26.7378 118.348 26.9208C118.42 27.1038 118.452 27.3004 118.442 27.497V28.0532C118.442 28.1478 118.408 28.214 118.27 28.214L116.316 28.2223ZM121.255 26.186V26.8796C121.255 26.963 121.227 26.9908 121.138 26.9908H121.038C120.835 26.9652 120.63 27.014 120.461 27.1283C120.291 27.2426 120.169 27.4145 120.117 27.6121V29.5978C120.118 29.6095 120.116 29.6213 120.112 29.6323C120.109 29.6434 120.103 29.6537 120.095 29.6624C120.087 29.6712 120.078 29.6784 120.067 29.6835C120.057 29.6887 120.045 29.6917 120.034 29.6924H119.218C119.206 29.6925 119.194 29.69 119.183 29.6852C119.172 29.6803 119.162 29.6731 119.154 29.6642C119.146 29.6552 119.141 29.6446 119.137 29.6332C119.134 29.6217 119.133 29.6097 119.134 29.5978V26.2127C119.133 26.2002 119.135 26.1878 119.14 26.1762C119.144 26.1646 119.151 26.1541 119.16 26.1456C119.169 26.137 119.18 26.1306 119.192 26.1268C119.204 26.1231 119.216 26.122 119.229 26.1237H119.967C120.045 26.1237 120.061 26.1737 120.061 26.2238V26.74C120.155 26.5463 120.303 26.384 120.487 26.2727C120.672 26.1614 120.884 26.106 121.099 26.1131C121.232 26.1131 121.255 26.1131 121.255 26.2243M122.664 27.4675V27.5893H123.908V27.4675C123.915 27.3817 123.904 27.2955 123.876 27.2142C123.848 27.1329 123.803 27.0583 123.745 26.9951C123.686 26.9319 123.615 26.8815 123.537 26.847C123.458 26.8125 123.373 26.7947 123.287 26.7947C123.201 26.7947 123.116 26.8125 123.037 26.847C122.958 26.8815 122.887 26.9319 122.829 26.9951C122.77 27.0583 122.726 27.1329 122.697 27.2142C122.669 27.2955 122.658 27.3817 122.665 27.4675M122.665 28.2223V28.3575C122.651 28.4455 122.657 28.5358 122.685 28.6207C122.713 28.7055 122.76 28.7825 122.824 28.845C122.888 28.9076 122.965 28.9539 123.051 28.9801C123.136 29.0063 123.226 29.0116 123.314 28.9954C123.454 29.0172 123.598 28.9921 123.722 28.9239C123.847 28.8557 123.945 28.7482 124.002 28.6183C124.058 28.5182 124.086 28.5071 124.185 28.5516L124.696 28.8124C124.802 28.8625 124.807 28.9126 124.763 29.0121C124.623 29.2696 124.41 29.4806 124.152 29.619C123.894 29.7573 123.601 29.8171 123.309 29.7908C123.107 29.816 122.902 29.7969 122.709 29.7349C122.515 29.6729 122.338 29.5695 122.188 29.4318C122.039 29.2942 121.921 29.1256 121.843 28.9379C121.766 28.7501 121.73 28.5477 121.738 28.3447V27.5114C121.729 27.3086 121.763 27.1061 121.84 26.9181C121.917 26.7302 122.034 26.5613 122.184 26.4235C122.333 26.2857 122.51 26.1822 122.704 26.1203C122.897 26.0584 123.102 26.0396 123.303 26.0653C123.499 26.0457 123.697 26.0688 123.883 26.1329C124.069 26.197 124.239 26.3006 124.382 26.4366C124.524 26.5726 124.635 26.7378 124.708 26.9208C124.78 27.1038 124.812 27.3004 124.802 27.497V28.0532C124.802 28.1478 124.768 28.214 124.63 28.214L122.665 28.2223Z" fill="white"></path></g></g><defs><clipPath id="clip0_130_180"><rect width="124.591" height="35.5983" fill="white" transform="translate(0.204346 0.253906)"></rect></clipPath></defs></svg>