<svg xmlns="http://www.w3.org/2000/svg" width="55" height="26" viewBox="0 0 55 26" fill="none"><g clip-path="url(#clip0_132_329)"><path d="M5.56659 5.31941V10.4494H12.5297V14.9999H5.56659V25.0533H0.691895V2.31094C0.691895 1.07631 1.17228 0.600098 2.40613 0.600098H13.9406V5.31941H5.56659Z" fill="white"></path><path d="M15.583 25.0533V2.31094C15.583 1.07883 16.0685 0.600098 17.3023 0.600098H20.4577V25.0533H15.583Z" fill="white"></path><path d="M32.6791 7.71064C32.6791 9.69612 31.5135 10.6863 29.8296 10.6863H27.7007V4.73241H29.8296C31.5135 4.73241 32.6791 5.72767 32.6791 7.71064ZM37.6549 18.0739C37.6549 14.7556 35.8699 13.1858 34.5652 12.7373C35.7308 12.1956 37.483 10.8249 37.483 7.06057C37.483 3.6414 35.1493 0.597656 30.1709 0.597656H24.649C23.4126 0.597656 22.9297 1.07639 22.9297 2.3085V25.0509H30.3783C34.5652 25.0509 37.6549 22.7227 37.6549 18.0739ZM32.7448 17.8043C32.7448 19.8553 31.5464 20.8481 29.8625 20.8481H27.7007V14.7556H29.8625C31.5464 14.7556 32.7448 15.7483 32.7448 17.8043Z" fill="white"></path><path d="M49.1508 12.2634H44.6225V7.23423C44.6225 6.20621 44.9638 4.46262 46.8879 4.46262C48.8095 4.46262 49.1508 6.20621 49.1508 7.23423V12.2634ZM54.0255 25.0532V6.68495C54.0255 4.80529 52.9965 0.0532227 46.8879 0.0532227C40.7743 0.0532227 39.7478 4.80529 39.7478 6.68495V25.0532H44.6225V16.8114H49.1508V25.0532H54.0255Z" fill="white"></path></g><defs><clipPath id="clip0_132_329"><rect width="55" height="25" fill="white" transform="translate(0 0.0532227)"></rect></clipPath></defs></svg>