<svg xmlns="http://www.w3.org/2000/svg" width="101" height="32" viewBox="0 0 101 32" fill="none"><path d="M3.83325 16.3114V29.2197L4.64992 28.3864C5.09159 27.9281 6.78325 26.1864 8.40825 24.5114C12.7416 20.0447 15.1333 17.7614 15.8916 17.3614C16.1999 17.1947 16.4083 17.2447 16.5166 17.4864C16.5916 17.6531 16.6333 19.3364 16.6583 23.4281L16.7083 29.1364L23.1916 29.1614L29.6666 29.1781V16.2947C29.6666 8.78641 29.6333 3.42808 29.5916 3.44474C29.5499 3.45308 26.8083 6.12807 23.4999 9.38641C20.1916 12.6364 17.3499 15.3864 17.1833 15.4864C16.8166 15.7114 16.7416 15.7197 16.3499 15.5364C16.1583 15.4447 13.7583 13.1364 10.2499 9.66974C7.06659 6.52807 4.31659 3.82808 4.14992 3.68641L3.83325 3.41141V16.3114Z" fill="#8251F5"></path><path d="M69.5833 6.56145C66.7249 6.90312 64.7833 7.77812 63.1916 9.45312C61.7499 10.9698 60.9916 12.9281 60.8666 15.4281C60.6083 20.6948 63.4416 24.3948 68.4499 25.3198C69.5166 25.5198 72.1249 25.5198 73.3749 25.3114C74.9749 25.0531 76.3499 24.6614 77.6916 24.0864L78.3333 23.8114V19.4114V15.0114H74.6666H70.9999V16.5948V18.1781H72.4583H73.9166V19.9281C73.9166 21.9614 74.0166 21.7698 72.8166 21.9781C71.8916 22.1364 70.3166 22.0948 69.5499 21.8864C68.1666 21.5031 66.9583 20.5364 66.3916 19.3448C65.8666 18.2448 65.7916 17.8281 65.7916 16.0531C65.7916 14.2448 65.8749 13.8198 66.4166 12.7198C66.8249 11.8781 67.2666 11.3698 67.9833 10.9031C69.0833 10.1781 70.3916 9.86979 72.0749 9.95312C73.6916 10.0281 75.3333 10.4615 76.8249 11.2115C77.2416 11.4198 77.5999 11.5948 77.6249 11.5948C77.6499 11.5948 77.6666 10.7531 77.6666 9.72812V7.85312L77.0083 7.60312C75.1666 6.89479 73.5749 6.59479 71.4166 6.55312C70.5666 6.53645 69.7416 6.54479 69.5833 6.56145Z" fill="white"></path><path d="M36.9167 16.0111V25.1777H39.1251H41.3334V18.4944C41.3334 14.8194 41.3667 11.8444 41.4001 11.8861C41.4417 11.9361 42.4001 14.1527 43.5417 16.8194L45.6084 21.6777H47.0834H48.5584L50.5251 17.0694C51.6084 14.5444 52.5584 12.3194 52.6417 12.1361C52.7834 11.8111 52.7917 11.9944 52.8167 18.4861L52.8334 25.1777H55.0417H57.2501V16.0111V6.84441H54.2667H51.2751L49.2001 11.7194C48.0584 14.3944 47.1084 16.5944 47.0834 16.5944C47.0584 16.5944 46.1001 14.4027 44.9667 11.7194L42.8917 6.84441H39.9001H36.9167V16.0111Z" fill="white"></path><path d="M87.0416 6.94441C87.0166 7.00275 85.525 11.0444 83.7166 15.9277C81.9166 20.8111 80.4166 24.8861 80.3833 24.9861L80.325 25.1777H82.6833H85.0416L85.6166 23.5111L86.1833 21.8444L89.9 21.8611L93.6083 21.8861L94.175 23.5111L94.7333 25.1361L97.1083 25.1611L99.4833 25.1777L99.1333 24.2444C98.9416 23.7277 97.4166 19.6027 95.75 15.0777L92.7083 6.84441H89.8916C87.7166 6.84441 87.0666 6.86942 87.0416 6.94441ZM91.1666 14.8277L92.3916 18.3861L89.9333 18.4111C88.5833 18.4194 87.4583 18.4111 87.4333 18.3944C87.4166 18.3694 87.9583 16.7444 88.6333 14.7694C89.3166 12.8027 89.8916 11.2111 89.9083 11.2277C89.9333 11.2527 90.5 12.8694 91.1666 14.8277Z" fill="white"></path></svg>