<svg xmlns="http://www.w3.org/2000/svg" width="24" height="26" viewBox="0 0 24 26" fill="none"><g clip-path="url(#clip0_132_294)"><mask id="mask0_132_294" style="mask-type:luminance" maskUnits="userSpaceOnUse" x="0" y="0" width="24" height="26"><path d="M0.0258789 0.0532227H23.3589V25.0532H0.0258789V0.0532227Z" fill="white"></path></mask><g mask="url(#mask0_132_294)"><path d="M22.028 6.2687L22.8848 4.39861L20.8651 3.82564C20.2498 3.65086 19.7972 3.1921 19.5193 2.4625L18.6274 0.114746L16.6365 1.69979C16.1087 2.11998 15.5741 2.3328 15.0469 2.3328C14.3421 2.3328 13.5399 2.00289 13.003 1.49252L11.7214 0.273187L10.4392 1.49263C9.90288 2.00299 9.10044 2.33291 8.39577 2.33291C7.86866 2.33291 7.33399 2.12009 6.80611 1.6999L4.81555 0.114853L3.92322 2.46261C3.64622 3.19231 3.19344 3.65107 2.57733 3.82575L0.558105 4.39872L1.41477 6.26881C1.81055 7.13205 2.01088 8.03302 2.01088 8.94648C2.01088 11.4743 0.670217 12.0493 0.670217 14.857C0.670217 18.902 3.92333 21.549 6.94622 22.2971C8.47355 22.6546 8.93488 22.6786 10.314 23.0055C10.427 23.1222 11.7214 24.4619 11.7214 24.4619C11.7214 24.4619 13.016 23.122 13.1287 23.0055C14.5078 22.6786 14.9693 22.6546 16.4967 22.2971C19.5193 21.5488 22.7729 18.9021 22.7729 14.857C22.7729 12.0494 21.432 11.4743 21.432 8.94648C21.4318 8.03259 21.6324 7.13195 22.028 6.2687ZM21.8083 11.9394C22.131 12.7162 22.4428 13.5267 22.4428 14.8571C22.4428 18.5521 19.5815 21.2061 16.4145 21.9899C14.8487 22.3702 14.1193 22.4071 12.9522 22.7218C12.8001 22.8752 11.7221 23.9956 11.7221 23.9956C11.7221 23.9956 10.6437 22.8749 10.4917 22.7218C9.32455 22.4073 8.59544 22.3702 7.02977 21.9899C4.58344 21.3848 2.32088 19.6637 1.41677 17.2102C1.14988 16.4862 1.00088 15.6992 1.00088 14.8573C1.00088 12.0979 2.34188 11.5752 2.34188 8.9468C2.34188 7.86955 2.07255 6.91603 1.71744 6.14082L1.01255 4.60128L2.67099 4.13067C3.39288 3.92596 3.91888 3.40161 4.2341 2.57212L4.96522 0.646798L6.59555 1.94455C7.13188 2.37169 7.74477 2.65064 8.39621 2.65064C9.26855 2.65064 10.1322 2.23227 10.6719 1.71859L11.7215 0.720088L12.7714 1.71859C13.3113 2.23227 14.175 2.65064 15.047 2.65064C15.6977 2.65064 16.3111 2.37169 16.8473 1.94455L18.4778 0.646691L19.2088 2.57201C19.5243 3.40161 20.0495 3.92596 20.7719 4.13056L22.4304 4.60118L21.7255 6.14071C21.3705 6.91592 21.1011 7.86945 21.1011 8.94669C21.1017 10.3082 21.4615 11.1041 21.8083 11.9394Z" fill="white"></path><path d="M21.3911 5.07059C21.3911 5.07059 18.8315 4.85606 18.1379 1.86397C18.1379 1.86397 16.6031 3.38406 15.0472 3.38406C13.0416 3.38406 11.7216 1.74463 11.7216 1.74463C11.7216 1.74463 10.4016 3.38406 8.39596 3.38406C6.83996 3.38406 5.30517 1.86397 5.30517 1.86397C4.61151 4.85638 2.05151 5.07059 2.05151 5.07059C2.05151 5.07059 3.09295 6.84228 3.09295 8.94014C3.09295 9.21568 3.07851 9.46974 3.05339 9.70873C2.83284 11.8044 1.75439 12.645 1.75439 14.8567C1.75439 17.5701 3.6875 20.4187 7.21684 21.2773C8.89384 21.6846 10.0513 21.7885 10.9035 22.0843C11.0125 22.1824 11.7217 22.9215 11.7217 22.9215C11.7217 22.9215 12.4307 22.1824 12.5396 22.0843C13.3918 21.7885 14.5495 21.6847 16.2259 21.2773C19.7556 20.4187 21.6885 17.5704 21.6885 14.8567C21.6885 12.3933 20.3502 11.6315 20.3502 8.94025C20.3498 6.84228 21.3911 5.07059 21.3911 5.07059ZM20.9363 14.8568C20.9363 17.9933 18.3946 19.99 16.0381 20.5653C14.1718 21.0205 12.9519 21.0728 12.1325 21.4527C12.1325 21.4527 11.8342 21.7147 11.7216 21.8354C11.6085 21.7147 11.3107 21.4527 11.3107 21.4527C10.4912 21.0728 9.27139 21.0205 7.40506 20.5653C5.04862 19.9896 2.50662 17.9934 2.50662 14.8568C2.50662 12.6137 3.84584 11.79 3.84584 8.94036C3.84584 7.02027 3.09095 5.54068 3.09095 5.54068C3.09095 5.54068 4.83306 5.20275 5.64462 3.08235C5.64462 3.08235 6.80051 4.11974 8.39617 4.11974C10.3946 4.11974 11.7218 2.77049 11.7218 2.77049C11.7218 2.77049 13.0488 4.11974 15.0474 4.11974C16.6428 4.11974 17.7986 3.08235 17.7986 3.08235C18.6104 5.20275 20.3526 5.54068 20.3526 5.54068C20.3526 5.54068 19.5974 7.02038 19.5974 8.94036C19.5969 11.79 20.9363 12.6137 20.9363 14.8568Z" fill="white"></path><path d="M15.0471 4.94196C13.5546 4.94196 12.3881 4.316 11.7214 3.84473C11.0543 4.316 9.88809 4.94196 8.39586 4.94196C7.41064 4.94196 6.57198 4.62144 5.98087 4.30318C5.43064 5.1864 4.74031 5.69976 4.1902 5.98982C4.42665 6.67048 4.70109 7.7223 4.70109 8.94035C4.70109 11.2862 3.86798 12.3849 3.51587 13.7128L15.7344 4.89014C15.5152 4.92315 15.2854 4.94196 15.0471 4.94196Z" fill="white"></path><path d="M18.7414 8.94079C18.7414 7.72273 19.0162 6.67081 19.2524 5.99025C18.7817 5.74164 18.2069 5.32935 17.7069 4.66162L3.3645 15.018C3.43306 17.0547 4.80206 18.5376 6.3655 19.3103L18.8447 10.2993C18.7804 9.89453 18.7414 9.44688 18.7414 8.94079ZM9.74139 15.9581L8.63161 16.759L7.43472 14.9969V17.6239L6.38483 18.3818V14.6665C6.38483 14.1416 5.86372 14.1276 5.86372 14.1276L7.35183 13.0531L8.69172 15.0261V12.0855L9.74161 11.3274L9.74139 15.9581ZM13.9755 12.9009L12.9491 13.6423V11.9491L11.7644 12.804V14.4977L10.6857 15.2765V11.5609C10.6857 11.0359 10.1646 11.0219 10.1646 11.0219L11.7644 9.86685V11.5782L12.9491 10.7231V9.01215L13.9755 8.26995V12.9009ZM17.8494 10.1036L14.8715 12.2539V8.53865C14.8715 8.01333 14.3504 7.99944 14.3504 7.99944L15.9499 6.84442V10.2931L17.8495 8.92198C17.8494 8.92198 17.7848 9.36258 17.8494 10.1036Z" fill="white"></path><path d="M7.44824 19.7246C7.50402 19.7398 7.56002 19.7548 7.61569 19.7678C9.09402 20.1292 10.9021 20.3153 11.448 20.6154C11.5712 20.7021 11.722 20.8558 11.722 20.8558C11.722 20.8558 11.8725 20.7021 11.9956 20.6154C12.5419 20.3153 14.3499 20.1292 15.8283 19.7678C17.8763 19.2668 20.0818 17.5177 20.0818 14.8568C20.0818 13.5305 19.4768 12.6575 19.0798 11.3252L7.44824 19.7246Z" fill="white"></path></g></g><defs><clipPath id="clip0_132_294"><rect width="24" height="25" fill="white" transform="translate(0 0.0532227)"></rect></clipPath></defs></svg>