<svg xmlns="http://www.w3.org/2000/svg" width="61" height="26" viewBox="0 0 61 26" fill="none"><g clip-path="url(#clip0_132_304)"><path d="M59.3714 13.5348C55.5938 9.69375 51.0785 6.64005 46.0913 4.55352C41.1111 2.47741 35.7609 1.41182 30.3576 1.41978C24.9552 1.41131 19.6059 2.47631 14.6264 4.55177C9.6392 6.63783 5.12364 9.69091 1.34551 13.5313L0.358887 12.5812C4.26625 8.61086 8.93584 5.45459 14.0929 3.2981C19.2409 1.15021 24.7715 0.0468327 30.3576 0.0532505C36.1218 0.0532505 41.6184 1.20806 46.6248 3.29985C51.7825 5.45611 56.4522 8.61308 60.3589 12.5847L59.3714 13.5348ZM47.63 25.0427C45.4317 22.6668 42.7593 20.7689 39.7821 19.469C36.8108 18.1764 33.6002 17.5113 30.3549 17.5163C26.9967 17.5163 23.8063 18.2153 20.9215 19.4725C17.9427 20.7737 15.2696 22.6742 13.0719 25.0532L12.0534 24.1285C14.3814 21.6106 17.2124 19.5996 20.3668 18.2232C23.5142 16.8509 26.9161 16.1444 30.3549 16.1489C33.903 16.1489 37.2807 16.889 40.3359 18.2197C43.4876 19.595 46.3162 21.6042 48.6422 24.1197L47.63 25.0427Z" fill="white"></path><path fill-rule="evenodd" clip-rule="evenodd" d="M11.1598 9.5518L14.1629 13.4012C15.9163 15.6496 14.9756 17.6085 13.0968 19.0467C11.1086 20.569 8.95779 20.7519 7.32019 18.6539L4.30908 14.794L6.01734 13.4869L9.05936 17.3862C9.81986 18.3617 10.9911 18.4028 11.9751 17.6496C12.8795 16.9575 13.3486 15.8517 12.4017 14.6391L9.4533 10.8597L11.1598 9.5518ZM27.867 12.9375L21.6249 14.2612L19.8098 5.87822L25.9671 4.57292L26.2992 6.10919L22.2529 6.96656L22.6327 8.72505L26.4926 7.90704L26.8256 9.44244L22.9657 10.2613L23.4012 12.2779L27.5349 11.4013L27.867 12.9375ZM40.6083 7.2369L36.8703 6.51601L36.5011 8.39172L40.2391 9.11086L39.9379 10.6541L36.199 9.93499L35.5215 13.3898L33.4025 12.983L35.0534 4.56592L40.9104 5.69363L40.6083 7.2369ZM49.9782 16.1614L47.7876 14.6575L50.7484 12.6357L49.9782 16.1614ZM52.9283 11.6401L50.8738 10.2289L43.0727 15.304L44.9497 16.5945L46.4574 15.5639L49.639 17.7493L49.2477 19.5454L51.1556 20.8577L52.9283 11.6401Z" fill="white"></path></g><defs><clipPath id="clip0_132_304"><rect width="61" height="25" fill="white" transform="translate(0 0.0532227)"></rect></clipPath></defs></svg>